<?xml version="1.0" encoding="utf-8"?>
<!-- Generator: Adobe Illustrator 16.0.3, SVG Export Plug-In . SVG Version: 6.00 Build 0)  -->
<!DOCTYPE svg PUBLIC "-//W3C//DTD SVG 1.1//EN" "http://www.w3.org/Graphics/SVG/1.1/DTD/svg11.dtd">
<svg version="1.1" id="Layer_1" xmlns="http://www.w3.org/2000/svg" xmlns:xlink="http://www.w3.org/1999/xlink" x="0px" y="0px"
	 width="400px" height="400px" viewBox="0 0 400 400" enable-background="new 0 0 400 400" xml:space="preserve">
<rect fill="#FFFFFF" width="400" height="400"/>
<polygon fill-rule="evenodd" clip-rule="evenodd" fill="#3AB44A" points="85.925,107 59.974,191.549 141.174,191.549 
	147.036,165.183 106.436,165.183 106.436,159.319 141.174,159.319 147.036,139.229 112.295,139.229 115.226,130.439 
	176.336,130.439 158.755,191.549 196.428,191.549 214.007,130.439 240.376,130.439 222.797,191.549 260.467,191.549 
	269.255,159.319 280.976,159.319 272.187,191.549 309.856,191.549 333.298,107 295.209,107 286.836,139.229 275.116,139.229 
	283.908,107 85.925,107 "/>
<text transform="matrix(1 0 0 1 56.999 245.0215)" fill="#3AB44A" font-family="'ArialMT'" font-size="56.3439">mensa</text>
</svg>
